<?xml version="1.0" encoding="UTF-8"?>
<svg version="1.1" xmlns="http://www.w3.org/2000/svg" width="512" height="512">
<path d="M0 0 C6.24705951 5.66139768 9.95670744 12.55381999 13.75 19.9609375 C14.23597656 20.90453125 14.72195312 21.848125 15.22265625 22.8203125 C19.86937403 32.42637128 23.94820549 43.17708811 22.75 53.9609375 C20.60972343 58.96012364 17.16850687 60.70939749 12.4375 62.8984375 C11.73560547 63.23617187 11.03371094 63.57390625 10.31054688 63.921875 C3.54806079 67.14210647 -3.32670815 70.10507961 -10.25 72.9609375 C-4.35747233 86.74551381 1.74557916 100.42723945 7.93771362 114.07931519 C9.18729075 116.83547597 10.43492159 119.59250922 11.68188477 122.34985352 C12.50015567 124.15902013 13.31843359 125.96818358 14.13671875 127.77734375 C14.53478226 128.65749649 14.93284576 129.53764923 15.3429718 130.44447327 C17.41801491 135.02936088 19.50243 139.60967919 21.60194397 144.18341064 C22.91106925 147.0423259 24.20424267 149.90844423 25.5 152.7734375 C25.95947021 153.76134277 26.41894043 154.74924805 26.89233398 155.76708984 C27.29395752 156.66250488 27.69558105 157.55791992 28.109375 158.48046875 C28.45452148 159.23432861 28.79966797 159.98818848 29.15527344 160.76489258 C29.88753 163.46877099 29.47592686 165.28636176 28.75 167.9609375 C27 168.7109375 27 168.7109375 24.75 168.9609375 C20.58064377 165.72037168 18.89701728 161.49353686 16.8359375 156.7890625 C16.46836334 155.97022583 16.10078918 155.15138916 15.72207642 154.30773926 C14.51453219 151.61252252 13.3198487 148.91180329 12.125 146.2109375 C11.28736998 144.33585551 10.44881601 142.46118601 9.609375 140.58691406 C7.86494709 136.68884691 6.1253731 132.78866887 4.38964844 128.88671875 C0.59407777 120.35833888 -3.23800529 111.84640632 -7.07000732 103.33435059 C-8.23177303 100.75146053 -9.39087529 98.16739041 -10.54931641 95.58300781 C-11.26202553 93.9954343 -11.97475243 92.40786876 -12.6875 90.8203125 C-13.00544525 90.10959595 -13.3233905 89.39887939 -13.65097046 88.66662598 C-13.95048615 88.00030151 -14.25000183 87.33397705 -14.55859375 86.64746094 C-14.81439209 86.07686951 -15.07019043 85.50627808 -15.33374023 84.918396 C-16.58704405 82.24089089 -17.92789531 79.60514688 -19.25 76.9609375 C-28.82 81.2509375 -38.39 85.5409375 -48.25 89.9609375 C-42.29584119 103.96093565 -36.18425724 117.86808326 -29.875 131.7109375 C-22.87763014 147.07599548 -16.05042171 162.50543362 -9.25 177.9609375 C21.77 177.9609375 52.79 177.9609375 84.75 177.9609375 C94.5334156 156.66762119 104.27996292 135.38942153 113.75 113.9609375 C115.8270417 109.26110461 117.90864773 104.56335804 119.99890137 99.86938477 C120.57820841 98.56612554 121.15579383 97.26209954 121.73156738 95.95727539 C122.527743 94.15323374 123.33013359 92.35193878 124.1328125 90.55078125 C124.81947998 89.00185181 124.81947998 89.00185181 125.52001953 87.42163086 C126.75 84.9609375 126.75 84.9609375 128.75 82.9609375 C131.3125 82.7734375 131.3125 82.7734375 133.75 82.9609375 C134.08 83.2909375 134.41 83.6209375 134.75 83.9609375 C134.3720468 89.75122784 133.02397978 94.3388641 130.49609375 99.5703125 C130.16342499 100.28290222 129.83075623 100.99549194 129.48800659 101.72967529 C128.77095366 103.26287881 128.04893844 104.79376966 127.32241821 106.32250977 C125.37254043 110.42601442 123.45890415 114.5464439 121.5390625 118.6640625 C121.14280167 119.5111377 120.74654083 120.35821289 120.33827209 121.23095703 C116.12516613 130.25398604 112.0838213 139.35118551 108.0625 148.4609375 C107.09205559 150.65889413 106.12147889 152.85679031 105.14993286 155.05426025 C104.30859425 156.95808001 103.4692686 158.862789 102.63012695 160.76757812 C100.0508847 166.52021609 97.39190621 172.23680737 94.75 177.9609375 C106.63 177.9609375 118.51 177.9609375 130.75 177.9609375 C131.84054687 175.5375 132.93109375 173.1140625 134.0546875 170.6171875 C134.43386826 169.77462402 134.81304901 168.93206055 135.20372009 168.06396484 C137.15396177 163.73036297 139.10378508 159.39657347 141.05297852 155.0625 C144.89291883 146.52533957 148.73511744 137.98924069 152.59118652 129.45935059 C154.2309281 125.83178277 155.86885259 122.20339581 157.50665283 118.57495117 C158.28907001 116.84293263 159.07238418 115.11131899 159.85662842 113.38012695 C160.95750079 110.9497626 162.05523029 108.51800053 163.15234375 106.0859375 C163.63405785 105.0257843 163.63405785 105.0257843 164.12550354 103.94421387 C166.19534685 99.34525074 168.02006672 94.69862955 169.75 89.9609375 C166.30376453 88.41246551 162.85694605 86.86529713 159.40991211 85.31860352 C157.48695285 84.45507854 155.56474004 83.58990754 153.64257812 82.72460938 C146.93085107 79.70715225 140.20936726 76.71579366 133.45904541 73.78552246 C130.18805437 72.36514835 126.92073588 70.9364235 123.65344238 69.50756836 C122.05786779 68.81274097 120.46045983 68.1221078 118.86120605 67.43579102 C116.60060786 66.46519335 114.34678799 65.48018262 112.09375 64.4921875 C111.42406189 64.20923828 110.75437378 63.92628906 110.06439209 63.63476562 C105.2231997 61.48747382 101.17140862 58.80375474 98.75 53.9609375 C96.83558143 35.77396111 108.10410409 15.95930985 118.75 1.9609375 C122.23067526 -0.95530394 125.00666345 -1.3739214 129.51089478 -1.30258179 C133.5793458 -0.82376762 137.03244312 0.91241813 140.69921875 2.66015625 C141.54238144 3.04701599 142.38554413 3.43387573 143.2542572 3.8324585 C145.98863267 5.09063986 148.71285026 6.3693504 151.4375 7.6484375 C153.32333578 8.5205207 155.20989785 9.39103496 157.09716797 10.26000977 C160.87370497 12.00010611 164.64710489 13.74674422 168.41845703 15.49804688 C175.70377782 18.87342713 183.03704068 22.13953798 190.375 25.3984375 C213.23768085 35.55945133 213.23768085 35.55945133 217 43.6484375 C217.88713546 47.56661912 218.08737675 51.36489203 218.2109375 55.375 C218.92038353 58.7782846 220.05262151 59.79063296 222.75 61.9609375 C224.96175709 63.35487844 227.16659606 64.67304197 229.4375 65.9609375 C260.94163965 84.34421681 260.94163965 84.34421681 264.75 91.9609375 C265.32884232 99.02281375 265.32884232 99.02281375 262.9375 102.8984375 C256.55083763 108.92014773 242.96021923 107.19616469 234.671875 107.11328125 C214.63089704 106.33479705 196.63228842 103.22745086 178.75 93.9609375 C172.23149307 107.36009064 166.15123859 120.9450797 160.12695312 134.57128906 C159.48573501 136.02150999 158.84445195 137.4717022 158.203125 138.921875 C157.74589617 139.95597095 157.74589617 139.95597095 157.27943039 141.01095772 C153.8679758 148.71439622 150.41994608 156.40137558 146.97167969 164.08837891 C146.36565329 165.43975509 145.75964527 166.79113951 145.15365601 168.14253235 C143.68598212 171.41542892 142.21806099 174.68821454 140.75 177.9609375 C141.98136499 177.96313734 141.98136499 177.96313734 143.23760605 177.96538162 C163.20083341 178.00241343 183.16389051 178.06137986 203.12697983 178.14484024 C212.78094516 178.18467048 222.43482851 178.21704269 232.08886719 178.23193359 C240.50212969 178.2449295 248.9152121 178.27184124 257.32837319 178.31555057 C261.78421276 178.33821193 266.23982981 178.35384539 270.69573212 178.35282135 C274.88847424 178.35207748 279.08072363 178.36991746 283.27333832 178.40210533 C284.81324009 178.41063474 286.35319694 178.4123337 287.89311218 178.40674019 C289.99424176 178.40012387 292.09379265 178.41796007 294.19476318 178.44195557 C295.37097103 178.44564274 296.54717888 178.44932991 297.75902939 178.45312881 C301.37321241 179.06674686 302.55742283 180.07373072 304.75 182.9609375 C305.25170898 185.64648437 305.25170898 185.64648437 305.24609375 188.6796875 C305.24673828 189.77667969 305.24738281 190.87367188 305.24804688 192.00390625 C305.22806641 193.14472656 305.20808594 194.28554687 305.1875 195.4609375 C305.19458984 196.60175781 305.20167969 197.74257812 305.20898438 198.91796875 C305.13628996 208.43534462 305.13628996 208.43534462 301.75 211.9609375 C299.37317 212.60132693 297.20502446 212.70267521 294.75463867 212.84472656 C294.09310791 212.88307617 293.43157715 212.92142578 292.75 212.9609375 C292.63785156 214.26804688 292.52570313 215.57515625 292.41015625 216.921875 C291.87299775 221.70305276 290.73728202 226.04169567 289.1875 230.5859375 C288.92428955 231.3601001 288.6610791 232.1342627 288.38989258 232.93188477 C283.95372994 245.47981425 277.73923402 256.09353675 268.75 265.9609375 C268.13769531 266.65445312 267.52539062 267.34796875 266.89453125 268.0625 C249.71658559 286.4491284 224.86565679 295.90838979 202.20410156 305.49804688 C175.02956844 316.00884892 175.02956844 316.00884892 156.7578125 337.43359375 C155.7833682 339.87725834 155.03473631 342.30811042 154.3125 344.8359375 C153.26141969 348.13516181 152.70269014 349.0060469 150.0625 351.5234375 C145.9092643 353.32578507 143.23578353 353.27030188 138.75 352.9609375 C138.75 357.2509375 138.75 361.5409375 138.75 365.9609375 C140.73 366.2909375 142.71 366.6209375 144.75 366.9609375 C149.26809497 370.52573457 151.34674068 374.67618095 153.6875 379.7734375 C158.57940621 389.87941656 163.0249765 397.30564561 173.75 401.9609375 C183.00602565 404.97285788 192.57636819 406.43377057 202.16210938 407.97851562 C209.87198477 409.31466341 214.61231735 410.5617813 220 416.3984375 C222.99449113 420.78322809 223.99962918 424.38984004 224.04052734 429.68164062 C224.05328705 430.80630737 224.06604675 431.93097412 224.07919312 433.08972168 C224.08253159 434.89769226 224.08253159 434.89769226 224.0859375 436.7421875 C224.0925943 437.98842896 224.0992511 439.23467041 224.10610962 440.51867676 C224.11622611 443.1512708 224.12092695 445.78389044 224.12060547 448.41650391 C224.12044246 451.11306445 224.13440015 453.80894904 224.16162109 456.50537109 C224.19821373 460.39702136 224.2080756 464.28788252 224.2109375 468.1796875 C224.23249405 469.98765808 224.23249405 469.98765808 224.25448608 471.83215332 C224.20880801 480.18099919 224.20880801 480.18099919 221.84619141 484.19726562 C218.95471305 486.63006782 217.36419088 487.08974015 213.67089844 487.15380859 C212.40883575 487.17790298 212.40883575 487.17790298 211.12127686 487.20248413 C207.26656922 487.24699331 203.41203361 487.28801151 199.55712891 487.31103516 C197.52608774 487.32757933 195.49510443 487.354849 193.46435547 487.39306641 C190.53322195 487.44793868 187.60345355 487.4697262 184.671875 487.484375 C183.76854431 487.50704437 182.86521362 487.52971375 181.93450928 487.55307007 C177.90082472 487.53960828 174.5767062 487.34962568 171.12988281 485.11572266 C168.75 481.9609375 168.75 481.9609375 168.75 470.9609375 C142.68 470.9609375 116.61 470.9609375 89.75 470.9609375 C89.42 474.2609375 89.09 477.5609375 88.75 480.9609375 C86.92632512 483.84352037 85.78064418 485.44561541 82.75 486.9609375 C81.35726959 487.06512993 79.95979875 487.10955838 78.56323242 487.12207031 C77.26629707 487.13648163 77.26629707 487.13648163 75.94316101 487.15118408 C74.53850334 487.1575589 74.53850334 487.1575589 73.10546875 487.1640625 C72.14353104 487.16976257 71.18159332 487.17546265 70.19050598 487.18133545 C68.15199893 487.19079263 66.11347653 487.19732227 64.07495117 487.20117188 C60.96050195 487.2108659 57.84671579 487.24187788 54.73242188 487.2734375 C52.75260809 487.27996866 50.77278958 487.28521869 48.79296875 487.2890625 C47.39742012 487.3075827 47.39742012 487.3075827 45.97367859 487.32647705 C41.11567684 487.30979741 37.63123168 487.24046918 33.75 483.9609375 C31.50541988 479.25800772 31.75 476.45465667 31.75 470.9609375 C5.68 470.9609375 -20.39 470.9609375 -47.25 470.9609375 C-47.25 473.9309375 -47.25 476.9009375 -47.25 479.9609375 C-48.87400184 483.59560829 -49.91113044 484.73502446 -53.25 486.9609375 C-55.21629333 487.21490479 -55.21629333 487.21490479 -57.47436523 487.21972656 C-58.7459977 487.22918304 -58.7459977 487.22918304 -60.0433197 487.23883057 C-61.41213036 487.23275787 -61.41213036 487.23275787 -62.80859375 487.2265625 C-63.74929214 487.22847595 -64.68999054 487.2303894 -65.65919495 487.23236084 C-67.64885729 487.23372193 -69.63852854 487.23003077 -71.62817383 487.22167969 C-74.6722412 487.21099108 -77.71571679 487.22157143 -80.75976562 487.234375 C-82.69270964 487.23305316 -84.62565328 487.23049025 -86.55859375 487.2265625 C-87.46910995 487.23061096 -88.37962616 487.23465942 -89.31773376 487.23883057 C-90.1686409 487.23252625 -91.01954803 487.22622192 -91.89624023 487.21972656 C-93.01517921 487.21733978 -93.01517921 487.21733978 -94.15672302 487.21490479 C-96.60900748 486.91738084 -98.16447114 486.2793285 -100.25 484.9609375 C-102.51824207 481.55857439 -102.51058007 480.32763777 -102.54052734 476.33129883 C-102.55328705 475.17612259 -102.56604675 474.02094635 -102.57919312 472.83076477 C-102.58141876 471.58079208 -102.58364441 470.3308194 -102.5859375 469.04296875 C-102.5959227 467.11344612 -102.5959227 467.11344612 -102.60610962 465.14494324 C-102.61808689 462.41877899 -102.62179033 459.69274144 -102.62060547 456.96655273 C-102.62040299 453.49085761 -102.64762716 450.01598677 -102.68214989 446.54048634 C-102.70989392 443.2079698 -102.70857201 439.87559907 -102.7109375 436.54296875 C-102.72530853 435.30311722 -102.73967957 434.06326569 -102.75448608 432.7858429 C-102.71726554 425.70294346 -102.16855052 420.93521451 -98.25 414.9609375 C-91.03309123 408.38369537 -80.98070867 407.68167752 -71.6953125 406.25390625 C-58.03279603 404.14804035 -47.82710191 401.77951559 -38.25 390.9609375 C-33.93047834 384.71695969 -30.60767261 377.9275652 -27.48828125 371.01953125 C-26.00844871 368.559368 -24.75130167 367.37158151 -22.25 365.9609375 C-20.6 365.9609375 -18.95 365.9609375 -17.25 365.9609375 C-17.25 361.6709375 -17.25 357.3809375 -17.25 352.9609375 C-19.10625 353.0434375 -20.9625 353.1259375 -22.875 353.2109375 C-28.44763103 353.2109375 -31.20222528 352.79567144 -35.25 348.9609375 C-37.45120957 345.45680609 -37.92520873 341.81164479 -38.625 337.7734375 C-39.60510191 332.43452925 -40.91316932 327.64610476 -43.3828125 322.79296875 C-44.29256326 320.87101781 -44.79947374 319.03427775 -45.25 316.9609375 C-46.24 317.2909375 -47.23 317.6209375 -48.25 317.9609375 C-52.09730475 318.29935783 -54.42114056 318.47379428 -57.75 316.4140625 C-58.575 315.68703125 -59.4 314.96 -60.25 314.2109375 C-67.10096117 308.69162095 -74.64071983 304.93091335 -82.50390625 301.03613281 C-83.47457031 300.54983398 -84.44523437 300.06353516 -85.4453125 299.5625 C-86.32203613 299.13275879 -87.19875977 298.70301758 -88.10205078 298.26025391 C-90.25 296.9609375 -90.25 296.9609375 -92.25 293.9609375 C-92.43358276 291.48322246 -92.50246775 289.12043535 -92.47705078 286.64379883 C-92.47729185 285.89011111 -92.47753292 285.1364234 -92.4777813 284.35989666 C-92.47628879 281.92080051 -92.46105912 279.48201021 -92.4453125 277.04296875 C-92.44237187 275.53690742 -92.44033155 274.03084405 -92.43920898 272.52478027 C-92.42872402 266.94096817 -92.4008016 261.35719983 -92.375 255.7734375 C-92.313125 237.05625 -92.313125 237.05625 -92.25 217.9609375 C-119.31 218.2909375 -146.37 218.6209375 -174.25 218.9609375 C-171.81079895 223.8393396 -168.65506682 227.72624635 -165.25 231.9609375 C-164.55390625 232.86392578 -164.55390625 232.86392578 -163.84375 233.78515625 C-150.85227418 249.98673511 -129.20182942 262.52616932 -109.84667969 269.43994141 C-106.39413585 270.74093524 -104.47393451 271.6560522 -102.26171875 274.66796875 C-101.92785156 275.42464844 -101.59398438 276.18132812 -101.25 276.9609375 C-101.91 277.9509375 -102.57 278.9409375 -103.25 279.9609375 C-110.50572699 279.54360507 -115.8362995 277.74764291 -122.3125 274.5234375 C-123.68341797 273.85235962 -123.68341797 273.85235962 -125.08203125 273.16772461 C-138.78538581 266.33638227 -151.00160703 258.35717948 -162.25 247.9609375 C-163.03117187 247.24550781 -163.03117187 247.24550781 -163.828125 246.515625 C-182.67744905 229.06600323 -182.67744905 229.06600323 -183.59765625 219.25390625 C-183.17686916 215.26824877 -182.09725357 213.72684096 -179.25 210.9609375 C-175.52501593 209.71927614 -172.07697035 209.82941205 -168.19848633 209.84741211 C-167.37874832 209.84726608 -166.55901031 209.84712006 -165.71443176 209.8469696 C-163.00360472 209.84766654 -160.2928463 209.85544872 -157.58203125 209.86328125 C-155.70301857 209.86514621 -153.8240054 209.86656974 -151.94499207 209.86756897 C-146.99824685 209.87138802 -142.05153098 209.88121312 -137.10479736 209.89227295 C-132.05749915 209.9025002 -127.01019621 209.90706941 -121.96289062 209.91210938 C-112.05858086 209.92283591 -102.15429287 209.93990502 -92.25 209.9609375 C-92.27320312 208.70796875 -92.29640625 207.455 -92.3203125 206.1640625 C-92.39702033 202.02183964 -91.6304187 199.45221826 -89.25 195.9609375 C-83.8449254 191.11742909 -78.89655519 191.47537565 -71.875 191.7109375 C-70.85277344 191.72898438 -69.83054687 191.74703125 -68.77734375 191.765625 C-66.26725251 191.81254259 -63.75912236 191.87817021 -61.25 191.9609375 C-61.29640625 191.35765625 -61.3428125 190.754375 -61.390625 190.1328125 C-61.42671875 189.33359375 -61.4628125 188.534375 -61.5 187.7109375 C-61.54640625 186.92203125 -61.5928125 186.133125 -61.640625 185.3203125 C-61.25 182.9609375 -61.25 182.9609375 -59.77832031 180.70214844 C-56.17970258 178.22384198 -52.76886988 178.35796216 -48.546875 178.3515625 C-47.70908508 178.33502625 -46.87129517 178.31848999 -46.00811768 178.30145264 C-43.33867063 178.25296251 -40.66979326 178.23160005 -38 178.2109375 C-36.18747132 178.18277857 -34.3749692 178.15285125 -32.5625 178.12109375 C-28.12504691 178.04720356 -23.68791023 177.99763536 -19.25 177.9609375 C-20.01154497 176.26861534 -20.77309037 174.57629338 -21.53463745 172.88397217 C-22.22924461 171.3403961 -22.92384475 169.79681687 -23.61843872 168.25323486 C-25.59572544 163.85918055 -27.57314234 159.46518488 -29.55078125 155.07128906 C-33.40822763 146.50051294 -37.26486654 137.92937852 -41.11697388 129.35620117 C-42.76476469 125.68902343 -44.41315309 122.02211445 -46.06158447 118.35522461 C-46.85204538 116.59640748 -47.64220792 114.83745623 -48.43206787 113.07836914 C-49.53729266 110.61701125 -50.64353811 108.15611446 -51.75 105.6953125 C-52.07630402 104.96789856 -52.40260803 104.24048462 -52.73880005 103.49102783 C-54.18268979 100.28222386 -55.63838434 97.08948639 -57.25 93.9609375 C-58.38695312 94.50363281 -59.52390625 95.04632813 -60.6953125 95.60546875 C-80.56404664 104.89716385 -101.37001923 107.80045715 -123.25 106.9609375 C-124.42820313 106.9196875 -125.60640625 106.8784375 -126.8203125 106.8359375 C-136.66345418 106.30744667 -136.66345418 106.30744667 -141.25 102.9609375 C-143.36212504 99.79274994 -143.58156464 97.82874498 -143.80859375 94.09375 C-140.49682224 81.44880423 -112.95872104 68.69498163 -102.25 62.3984375 C-101.486875 61.96402344 -100.72375 61.52960938 -99.9375 61.08203125 C-98.09058794 60.05672272 -98.09058794 60.05672272 -97.25 57.9609375 C-96.84570047 54.85518205 -96.4841136 51.75134061 -96.17578125 48.63476562 C-95.49701714 42.81925282 -93.92421128 39.68203772 -89.87890625 35.5234375 C-84.92992343 31.62855921 -78.92450079 29.44109297 -73.1875 26.9609375 C-71.90083212 26.39597025 -70.61462562 25.82995124 -69.32885742 25.26293945 C-66.65230048 24.08353331 -63.97381024 22.90868531 -61.29394531 21.73681641 C-55.47989556 19.18961075 -49.69344862 16.58120416 -43.90515137 13.97616577 C-42.07245893 13.1529111 -40.23820156 12.33325601 -38.40332031 11.51489258 C-33.15315316 9.17166084 -27.91279911 6.81602268 -22.7109375 4.3671875 C-21.89133545 3.98667236 -21.0717334 3.60615723 -20.22729492 3.21411133 C-18.77104202 2.53636915 -17.31996206 1.84731187 -15.8762207 1.14331055 C-10.64259765 -1.27225879 -5.44616126 -2.51506753 0 0 Z M-15.27734375 10.00390625 C-15.97020477 10.32390594 -16.6630658 10.64390564 -17.37692261 10.97360229 C-19.65032144 12.02511355 -21.91880954 13.08681108 -24.1875 14.1484375 C-26.56272924 15.25010156 -28.9391916 16.34907259 -31.31578064 17.44779968 C-32.92917309 18.19380209 -34.54217715 18.94064502 -36.15480042 19.68830872 C-41.26143011 22.05337612 -46.38250857 24.3823513 -51.5234375 26.671875 C-52.49117851 27.10301353 -52.49117851 27.10301353 -53.47846985 27.54286194 C-56.4778526 28.87746054 -59.47917766 30.20748724 -62.48217773 31.53393555 C-65.74900869 32.98696567 -69.00179698 34.46675451 -72.25 35.9609375 C-72.87598083 36.24362488 -73.50196167 36.52631226 -74.14691162 36.81756592 C-76.08964229 37.70081193 -78.01999879 38.60720767 -79.94921875 39.51953125 C-81.68498169 40.32668579 -81.68498169 40.32668579 -83.45581055 41.15014648 C-86.62556437 43.20432422 -87.33865216 44.35481298 -88.25 47.9609375 C-88.43601037 49.9353047 -88.55867822 51.91643671 -88.625 53.8984375 C-89.02419501 59.08163614 -89.55116398 62.08167045 -93.25 65.9609375 C-97.54068179 69.43351769 -102.19976388 72.32558491 -106.8984375 75.20703125 C-108.22416313 76.02049967 -109.54967823 76.83431127 -110.875 77.6484375 C-111.54563477 78.05980957 -112.21626953 78.47118164 -112.90722656 78.89501953 C-120.71794442 83.75874875 -127.97943899 89.33398735 -135.25 94.9609375 C-134.92 95.9509375 -134.59 96.9409375 -134.25 97.9609375 C-104.26182901 101.91232003 -78.63264315 95.45847033 -51.77246094 82.62402344 C-45.95103301 79.87550895 -40.06900612 77.26525877 -34.1875 74.6484375 C-31.78484921 73.57490567 -29.38251197 72.50067185 -26.98046875 71.42578125 C-26.36967972 71.15246475 -25.75889069 70.87914825 -25.1295929 70.59754944 C-17.82595599 67.32692259 -10.53298621 64.03276899 -3.24465942 60.72817993 C-1.75339619 60.05236416 -0.26176015 59.37737039 1.23025513 58.70321655 C3.30555426 57.76528968 5.37951357 56.82446354 7.453125 55.8828125 C8.64583008 55.34237305 9.83853516 54.80193359 11.06738281 54.24511719 C13.61209176 53.20967242 13.61209176 53.20967242 14.75 51.9609375 C15.54611772 36.6962456 5.7003048 20.24681913 -2.7578125 8.32421875 C-6.5429528 4.86606701 -11.37807684 8.16015824 -15.27734375 10.00390625 Z M124.33984375 9.01171875 C121.51650145 12.22683706 119.39117694 15.42608052 117.3125 19.1484375 C116.92779541 19.83534668 116.54309082 20.52225586 116.14672852 21.22998047 C113.30026732 26.51431424 111.0973333 31.89985623 109.1875 37.5859375 C108.81057007 38.70391724 108.81057007 38.70391724 108.42602539 39.84448242 C107.09973653 44.04908004 106.64932768 47.51003671 106.75 51.9609375 C118.6568963 58.05034242 130.73741124 63.67358891 142.9375 69.1484375 C144.79133779 69.98232982 146.64509662 70.81639769 148.4987793 71.65063477 C151.28316863 72.90348016 154.06774705 74.15589347 156.8530426 75.40672302 C161.71902874 77.59265143 166.57947937 79.7897789 171.43028259 82.00920105 C174.04143129 83.20372296 176.65513714 84.39258067 179.26919556 85.58071899 C180.99130571 86.36597403 182.70996699 87.15877931 184.4284668 87.9519043 C206.93857749 98.14832009 231.24242144 101.19017138 255.75 97.9609375 C256.20643235 94.10642598 256.20643235 94.10642598 254.3515625 92.47216797 C253.69929687 92.01213379 253.04703125 91.55209961 252.375 91.078125 C251.27937744 90.29417358 251.27937744 90.29417358 250.16162109 89.49438477 C248.96786865 88.67345337 248.96786865 88.67345337 247.75 87.8359375 C246.93998535 87.26480225 246.1299707 86.69366699 245.29541016 86.10522461 C239.36074649 81.96205935 233.28272959 78.07958881 227.1184082 74.28979492 C213.76307044 66.07543821 213.76307044 66.07543821 210.75 59.9609375 C210.34375 57.05859375 210.34375 57.05859375 210.25 54.0234375 C210.10194231 49.24240808 209.45839278 45.97154742 206.75 41.9609375 C204.23752928 40.38871656 202.01027528 39.23903068 199.3125 38.0859375 C198.51046143 37.7242749 197.70842285 37.3626123 196.88208008 36.98999023 C194.9836757 36.13811793 193.08082352 35.29612204 191.17480469 34.46142578 C187.19435947 32.71749819 183.22592915 30.94753232 179.2578125 29.17578125 C174.57794397 27.08794669 169.89662074 25.00357763 165.20947266 22.93212891 C155.43327845 18.61137577 145.68385988 14.24281071 136.0065918 9.70336914 C135.20906494 9.3346167 134.41153809 8.96586426 133.58984375 8.5859375 C132.91300537 8.26882812 132.23616699 7.95171875 131.53881836 7.625 C128.18616659 6.3803961 127.05580649 6.70072939 124.33984375 9.01171875 Z M-53.25 186.9609375 C-53.25 192.9009375 -53.25 198.8409375 -53.25 204.9609375 C-39.72 204.9609375 -26.19 204.9609375 -12.25 204.9609375 C-11.59 202.9809375 -10.93 201.0009375 -10.25 198.9609375 C-8.8828125 196.765625 -8.8828125 196.765625 -7.375 194.8359375 C-6.88257813 194.19398438 -6.39015625 193.55203125 -5.8828125 192.890625 C-4.12184117 190.80947707 -2.17771843 188.88865593 -0.25 186.9609375 C-17.74 186.9609375 -35.23 186.9609375 -53.25 186.9609375 Z M-82.86474609 200.95605469 C-85.07776602 204.15896615 -84.64046129 207.62372279 -84.59057617 211.37963867 C-84.59101425 212.23839096 -84.59145233 213.09714325 -84.59190369 213.98191833 C-84.58981223 216.82281157 -84.56646443 219.663116 -84.54296875 222.50390625 C-84.53737406 224.47259702 -84.53310337 226.44129197 -84.53010559 228.4099884 C-84.5186468 233.59357214 -84.48917066 238.77690401 -84.45599365 243.96038818 C-84.42531508 249.24894809 -84.41160499 254.53754865 -84.39648438 259.82617188 C-84.36430201 270.20453779 -84.31309311 280.58271671 -84.25 290.9609375 C-83.14784149 291.50694107 -82.04568298 292.05294464 -80.91012573 292.61549377 C-79.45159306 293.34065508 -77.99310973 294.06591564 -76.53466797 294.79125977 C-75.80970627 295.15007484 -75.08474457 295.50888992 -74.33781433 295.87857819 C-69.47901728 298.29828991 -64.8908556 300.87547063 -60.375 303.8984375 C-56.4130621 306.59915107 -56.4130621 306.59915107 -52.25 308.9609375 C-52.25 277.2809375 -52.25 245.6009375 -52.25 212.9609375 C-54.56 211.9709375 -56.87 210.9809375 -59.25 209.9609375 C-60.71611557 206.71709295 -60.83940117 203.47383858 -61.25 199.9609375 C-64.52066566 199.87386858 -67.79103365 199.82052509 -71.0625 199.7734375 C-72.4556543 199.73573242 -72.4556543 199.73573242 -73.87695312 199.69726562 C-74.76962891 199.68759766 -75.66230469 199.67792969 -76.58203125 199.66796875 C-77.81530151 199.64440308 -77.81530151 199.64440308 -79.07348633 199.62036133 C-81.24974756 199.81717801 -81.24974756 199.81717801 -82.86474609 200.95605469 Z M-44.25 212.9609375 C-50.61714507 267.57128098 -50.61714507 267.57128098 -37.25 315.9609375 C-33.10955504 323.57432579 -31.33553507 331.44772708 -29.92578125 339.90625 C-29.5168769 343.05251062 -29.5168769 343.05251062 -27.25 344.9609375 C-24.66029401 345.27340121 -24.66029401 345.27340121 -21.58738708 345.23268127 C-20.38285889 345.2423996 -19.17833069 345.25211792 -17.93730164 345.26213074 C-16.59548959 345.26290101 -15.25367743 345.26348999 -13.91186523 345.26391602 C-12.50433869 345.27157394 -11.09681673 345.28011969 -9.68930054 345.28948975 C-6.65489126 345.30779249 -3.62054392 345.31981555 -0.58608818 345.32702827 C4.20731985 345.33848878 9.00059048 345.36393275 13.79393005 345.39134216 C21.37166683 345.43302282 28.94941013 345.46542464 36.52720731 345.49381632 C50.10670276 345.54477464 63.68614141 345.60681448 77.26553959 345.67915672 C82.03544701 345.70413934 86.80533616 345.72354357 91.57528508 345.73853886 C94.53623098 345.74871118 97.49714851 345.76285678 100.45807266 345.77801514 C101.83638405 345.78419374 103.21470439 345.78864003 104.59302711 345.79127312 C106.46682288 345.79505867 108.34060201 345.80542086 110.21437073 345.81617737 C111.79088834 345.82195974 111.79088834 345.82195974 113.3992548 345.82785892 C115.75 345.9609375 115.75 345.9609375 116.75 346.9609375 C116.75 348.6109375 116.75 350.2609375 116.75 351.9609375 C54.38 352.4559375 54.38 352.4559375 -9.25 352.9609375 C-9.25 357.2509375 -9.25 361.5409375 -9.25 365.9609375 C36.95 365.9609375 83.15 365.9609375 130.75 365.9609375 C131.08 360.3509375 131.41 354.7409375 131.75 348.9609375 C136.25 345.5859375 136.25 345.5859375 140.5 345.2734375 C141.29921875 345.20769531 142.0984375 345.14195312 142.921875 345.07421875 C143.52515625 345.03683594 144.1284375 344.99945313 144.75 344.9609375 C145.17796875 343.9503125 145.6059375 342.9396875 146.046875 341.8984375 C157.29142866 315.72259128 176.41262808 306.98352352 201.78387451 296.5463562 C230.51738833 284.75975898 230.51738833 284.75975898 255.75 266.9609375 C256.7090625 266.11144531 257.668125 265.26195312 258.65625 264.38671875 C273.07714694 250.81760556 280.38868002 234.01430187 284.75 214.9609375 C284.75 214.3009375 284.75 213.6409375 284.75 212.9609375 C176.18 212.9609375 67.61 212.9609375 -44.25 212.9609375 Z M-21.04427624 376.28489399 C-21.44216508 377.16798835 -21.84005392 378.05108271 -22.25 378.9609375 C-23.10464844 380.65283203 -23.10464844 380.65283203 -23.9765625 382.37890625 C-24.28094238 382.98863281 -24.58532227 383.59835937 -24.89892578 384.2265625 C-31.50782629 397.23938512 -39.34661051 405.72620343 -53.25 410.9609375 C-58.64772578 412.53473501 -64.20208762 413.35761083 -69.75 414.2109375 C-71.87819796 414.55303854 -74.00489845 414.90179422 -76.13024902 415.26116943 C-78.0357612 415.5813189 -79.94457016 415.88166653 -81.85351562 416.18066406 C-86.20394534 417.18008711 -89.79794972 418.41217695 -92.90022278 421.72106934 C-94.57811573 424.50542437 -94.61285604 426.22586034 -94.59057617 429.46386719 C-94.59034958 430.56470642 -94.59012299 431.66554565 -94.58988953 432.79974365 C-94.57440567 433.98215637 -94.55892181 435.16456909 -94.54296875 436.3828125 C-94.53872391 437.59793518 -94.53447906 438.81305786 -94.53010559 440.06500244 C-94.51330876 443.94720589 -94.47565338 447.82889086 -94.4375 451.7109375 C-94.42245452 454.34244042 -94.40876588 456.97395148 -94.39648438 459.60546875 C-94.36340185 466.05746867 -94.31319179 472.50916604 -94.25 478.9609375 C-88.85653012 478.98558599 -83.46309275 479.00377281 -78.06958008 479.01586914 C-76.23331125 479.02090981 -74.39704646 479.02774227 -72.56079102 479.03637695 C-69.92723599 479.04845422 -67.29373384 479.05416831 -64.66015625 479.05859375 C-63.42109276 479.06633568 -63.42109276 479.06633568 -62.15699768 479.07423401 C-60.18763632 479.07442955 -58.21838386 479.02297902 -56.25 478.9609375 C-54.46851552 477.17945302 -55.09879599 474.53427633 -55.07421875 472.125 C-55.03844727 470.30935547 -55.03844727 470.30935547 -55.00195312 468.45703125 C-54.95963743 465.91552473 -54.92804013 463.37381261 -54.90820312 460.83203125 C-54.57819176 446.2654829 -50.0082451 435.54083214 -39.53125 425.3046875 C-34.39359795 420.84452803 -31.18268089 418.52652086 -24.25 417.9609375 C-23.86328125 420.12109375 -23.86328125 420.12109375 -24.25 422.9609375 C-26.27759162 425.00040374 -28.17150547 426.67021945 -30.4375 428.3984375 C-34.95288791 431.92718546 -38.80505269 435.34821145 -42.25 439.9609375 C-42.25 440.6209375 -42.25 441.2809375 -42.25 441.9609375 C-19.15 441.9609375 3.95 441.9609375 27.75 441.9609375 C27.42 437.3409375 27.09 432.7209375 26.75 427.9609375 C26.71442348 424.61674459 26.68075523 421.30007408 26.75 417.9609375 C28.41611905 417.9182165 30.08382885 417.92029918 31.75 417.9609375 C33.46490866 419.67584616 33.21668952 422.01973749 33.49023438 424.36694336 C33.62707642 425.52161606 33.76391846 426.67628876 33.90490723 427.86595154 C34.04972534 429.12319534 34.19454346 430.38043915 34.34375 431.67578125 C34.57531277 433.63296511 34.80687956 435.5901485 35.03868866 437.5473032 C35.44607442 440.99725894 35.84771802 444.4478836 36.25 447.8984375 C36.72962674 452.00858382 37.21044538 456.11857606 37.69689941 460.22792053 C37.99986525 462.79052001 38.29934144 465.3535348 38.59509277 467.91697693 C38.73193481 469.07480179 38.86877686 470.23262665 39.00976562 471.42553711 C39.18844177 472.95989662 39.18844177 472.95989662 39.37072754 474.5252533 C39.62360755 476.96171189 39.62360755 476.96171189 40.75 478.9609375 C53.62 478.9609375 66.49 478.9609375 79.75 478.9609375 C81.34999189 474.96095778 82.11590155 472.38511551 82.61962891 468.25268555 C82.82962021 466.57150887 82.82962021 466.57150887 83.04385376 464.85636902 C83.18664764 463.6572438 83.32944153 462.45811859 83.4765625 461.22265625 C83.62910492 459.98675247 83.78164734 458.75084869 83.93881226 457.47749329 C84.34149889 454.2049436 84.73831093 450.93175246 85.13226318 447.65814209 C85.53635717 444.31250396 85.94819795 440.96782054 86.359375 437.62304688 C87.16337359 431.06986469 87.95963141 424.51577677 88.75 417.9609375 C90.73 417.9609375 92.71 417.9609375 94.75 417.9609375 C94.42 425.8809375 94.09 433.8009375 93.75 441.9609375 C116.85 441.9609375 139.95 441.9609375 163.75 441.9609375 C161.24687317 437.78905944 159.20677854 435.17407008 155.8125 431.8359375 C154.95785156 430.98773438 154.10320312 430.13953125 153.22265625 429.265625 C149.53167105 425.41997939 149.53167105 425.41997939 144.75 423.9609375 C144.75 421.6509375 144.75 419.3409375 144.75 416.9609375 C155.57586383 419.03397525 163.17322962 427.58810131 169.75 435.9609375 C175.84482094 445.22368797 176.08887373 455.75197551 176.375 466.5234375 C176.41367187 467.72291016 176.45234375 468.92238281 176.4921875 470.15820312 C176.58570459 473.09230175 176.67145635 476.02640634 176.75 478.9609375 C182.14346988 478.98558599 187.53690725 479.00377281 192.93041992 479.01586914 C194.76668875 479.02090981 196.60295354 479.02774227 198.43920898 479.03637695 C201.07276401 479.04845422 203.70626616 479.05416831 206.33984375 479.05859375 C207.57890724 479.06633568 207.57890724 479.06633568 208.84300232 479.07423401 C210.81236368 479.07442955 212.78161614 479.02297902 214.75 478.9609375 C216.40058838 477.31034912 215.91941749 475.36744555 215.95874023 473.09326172 C215.98767616 471.535616 215.98767616 471.535616 216.01719666 469.94650269 C216.07479359 465.17302701 216.1242531 460.39970713 216.1550293 455.62597656 C216.1765856 453.10988622 216.21065965 450.59387039 216.25756836 448.078125 C216.32458947 444.45278372 216.35203794 440.82899862 216.37109375 437.203125 C216.41283974 435.52305862 216.41283974 435.52305862 216.45542908 433.80905151 C216.44180727 428.61788288 216.32444719 424.92736162 212.98828125 420.78662109 C210.60324109 418.46696108 208.66917476 417.03513745 205.31640625 416.5078125 C204.50993652 416.36537109 203.7034668 416.22292969 202.87255859 416.07617188 C202.02773926 415.95564453 201.18291992 415.83511719 200.3125 415.7109375 C199.43158691 415.55947266 198.55067383 415.40800781 197.64306641 415.25195312 C195.85815971 414.94524811 194.07132832 414.64952599 192.28271484 414.36523438 C174.80116873 411.5746579 162.01304363 408.11044639 151.0625 393.2734375 C148.39703857 389.19654997 146.18613161 384.99222676 144.04296875 380.62890625 C143.72404663 379.98514038 143.40512451 379.34137451 143.07653809 378.67810059 C142.29859916 377.10691185 141.52395618 375.53409192 140.75 373.9609375 C119.94047161 373.84423432 99.13099703 373.75601321 78.321208 373.70187664 C68.65925864 373.67607407 58.99751238 373.64088446 49.33569336 373.58374023 C40.916307 373.53396796 32.49706769 373.50166143 24.07753831 373.49049503 C19.61768636 373.48396574 15.15825517 373.46857794 10.69853783 373.43228722 C6.50338602 373.398425 2.30882948 373.38786453 -1.886446 373.39539909 C-3.42843609 373.39402014 -4.97044548 373.38402903 -6.51231766 373.36491013 C-8.61395553 373.340122 -10.71333024 373.34597649 -12.8150177 373.35966492 C-13.99214734 373.35505595 -15.16927698 373.35044699 -16.38207722 373.34569836 C-19.42969461 373.67662613 -19.42969461 373.67662613 -21.04427624 376.28489399 Z M-46.25 449.9609375 C-47.57229189 452.60552129 -47.34677194 454.63855051 -47.3125 457.5859375 C-47.291875 459.3596875 -47.27125 461.1334375 -47.25 462.9609375 C-43.29 462.9609375 -39.33 462.9609375 -35.25 462.9609375 C-34.8375 461.7440625 -34.425 460.5271875 -34 459.2734375 C-32.61919162 455.20005277 -31.20183242 453.65072802 -28.25 449.9609375 C-34.19 449.9609375 -40.13 449.9609375 -46.25 449.9609375 Z M91.75 449.9609375 C91.42 454.2509375 91.09 458.5409375 90.75 462.9609375 C96.69 462.9609375 102.63 462.9609375 108.75 462.9609375 C109.36875 461.3728125 109.9875 459.7846875 110.625 458.1484375 C111.81301822 455.09919074 112.9227089 452.70187415 114.75 449.9609375 C107.16 449.9609375 99.57 449.9609375 91.75 449.9609375 Z " fill="#424751" transform="translate(195.25,13.0390625)"/>
<path d="M0 0 C0.94812325 -0.00782324 1.8962465 -0.01564648 2.87310076 -0.02370679 C3.91676286 -0.01701463 4.96042497 -0.01032246 6.0357132 -0.00342751 C7.14280246 -0.00810748 8.24989173 -0.01278745 9.39052916 -0.01760924 C13.11942307 -0.0296247 16.84795391 -0.02007624 20.57685089 -0.01066017 C23.24235364 -0.01472296 25.90783093 -0.01995419 28.57332611 -0.02659035 C35.07309647 -0.03994968 41.57276307 -0.0370402 48.07253754 -0.02835242 C53.35372339 -0.02158491 58.6348801 -0.02065511 63.91606903 -0.02392387 C64.66691929 -0.02438357 65.41776955 -0.02484327 66.19137284 -0.0253169 C67.71657805 -0.02627605 69.24178326 -0.02724869 70.76698846 -0.02823468 C85.07819712 -0.03679501 99.38934818 -0.02694436 113.7005474 -0.01083358 C125.98763184 0.0025702 138.27463126 0.00024229 150.56171417 -0.01358986 C164.82073826 -0.02963433 179.07971183 -0.03597098 193.33874369 -0.02675307 C194.85842545 -0.02579739 196.37810722 -0.02485428 197.897789 -0.02392387 C199.01943918 -0.02322963 199.01943918 -0.02322963 200.16374895 -0.02252137 C205.44029145 -0.01992807 210.71680199 -0.02430977 215.99333954 -0.03136253 C222.42125985 -0.03976517 228.84907022 -0.03752357 235.2769779 -0.0215203 C238.55837458 -0.01362077 241.83954925 -0.01218169 245.1209507 -0.02046776 C248.67353426 -0.0286141 252.22559497 -0.01844511 255.77814484 -0.00342751 C256.82180694 -0.01011967 257.86546905 -0.01681184 258.94075727 -0.02370679 C259.88888052 -0.01588355 260.83700377 -0.00806031 261.81385803 0 C262.63432633 0.00048706 263.45479463 0.00097411 264.3001256 0.00147593 C266.9416065 0.47295906 267.84371566 1.21991448 269.40692902 3.37752342 C269.50935184 8.70351025 267.97617821 11.75456168 264.44989777 15.49861717 C247.14302036 31.41564974 224.86277082 39.96346654 203.53192902 49.00252342 C183.85688442 57.36597192 164.0368435 66.47423784 151.97724152 85.01814842 C147.20282744 92.19164618 147.20282744 92.19164618 143.73668575 93.0011425 C142.71186124 93.00042999 141.68703672 92.99971748 140.63115692 92.99898338 C138.8624398 93.01579659 138.8624398 93.01579659 137.05799103 93.03294945 C135.12297729 93.01305458 135.12297729 93.01305458 133.14887238 92.9927578 C131.77385015 92.99625948 130.39883198 93.00191859 129.0238266 93.00957298 C125.29230704 93.02382311 121.56152415 93.00675895 117.83007503 92.98328781 C113.92637955 92.96318732 110.0227149 92.96905787 106.11898041 92.97139549 C99.56436758 92.97134192 93.01004299 92.95158218 86.455513 92.91951561 C78.87436457 92.88260717 71.29359355 92.87384207 63.712367 92.88081312 C56.42195529 92.88711471 49.13167318 92.87637126 41.84128761 92.85684776 C38.73726876 92.8486668 35.63331608 92.84596548 32.52928734 92.8475399 C28.87580029 92.84841781 25.22267282 92.83422843 21.56928062 92.80831337 C19.5863281 92.79771644 17.60331418 92.80182811 15.62033844 92.80632591 C14.44401352 92.79497612 13.2676886 92.78362633 12.05571747 92.7719326 C11.03126998 92.76820389 10.00682249 92.76447517 8.95133114 92.76063347 C6.40692902 92.37752342 6.40692902 92.37752342 4.65910435 91.0767498 C2.53296156 88.19153252 1.31761444 84.86224853 -0.03057098 81.56502342 C-0.606721 80.16025315 -1.18869547 78.75785663 -1.77666473 77.35799217 C-2.02988495 76.73819481 -2.28310516 76.11839745 -2.54399872 75.47981834 C-3.61183914 73.18422664 -3.61183914 73.18422664 -5.62728119 70.65291405 C-7.82359813 66.99342008 -8.09415097 65.08799419 -8.09477997 60.8689785 C-8.10416092 59.59778664 -8.11354187 58.32659477 -8.12320709 57.01688194 C-8.11273149 55.64359926 -8.10136284 54.27032314 -8.08916473 52.89705467 C-8.08931984 51.47792042 -8.09081069 50.05878573 -8.09357452 48.63965416 C-8.094955 45.67488802 -8.08245579 42.71060775 -8.05962372 39.74593163 C-8.03116137 35.94595247 -8.0340018 32.14677521 -8.04671383 28.34673595 C-8.05366541 25.42047836 -8.04588915 22.49440635 -8.0334568 19.56817245 C-8.02894266 18.16674257 -8.0286052 16.76529277 -8.0325222 15.36386108 C-8.03543093 13.4085022 -8.01677989 11.453147 -7.99712372 9.49788475 C-7.99172073 8.38569069 -7.98631775 7.27349663 -7.98075104 6.12759972 C-7.27836011 1.14506677 -4.77121327 0.00283235 0 0 Z " fill="#F76B82" transform="translate(178.59307098388672,245.6224765777588)"/>
<path d="M0 0 C1.69477226 -0.00856522 1.69477226 -0.00856522 3.42378235 -0.01730347 C4.65918259 -0.01842133 5.89458282 -0.01953918 7.16741943 -0.02069092 C8.47188522 -0.02565582 9.77635101 -0.03062073 11.12034607 -0.03573608 C14.69697807 -0.04883871 18.27359132 -0.055301 21.85024357 -0.05974674 C24.08691979 -0.06268127 26.32359093 -0.06678682 28.56026459 -0.07125092 C35.56443929 -0.08492099 42.56860232 -0.09458972 49.57278943 -0.09845281 C57.64653541 -0.10293076 65.72011187 -0.12046841 73.79380631 -0.1494534 C80.04194681 -0.17110253 86.29003972 -0.18115883 92.53821731 -0.18249393 C96.26643253 -0.18353976 99.99448829 -0.18939995 103.72266388 -0.20731354 C107.88534249 -0.22692609 112.0476684 -0.22249241 116.21038818 -0.21600342 C117.4376915 -0.2252182 118.66499481 -0.23443298 119.92948914 -0.243927 C126.81863671 -0.21030524 133.45435717 -0.16096717 139.0327034 4.45081711 C141.38497876 6.94794603 142.40653254 8.88318986 142.94769287 12.26544189 C142.37824254 15.5397813 141.78902545 16.80390494 139.44769287 19.14044189 C136.68185425 19.64101315 136.68185425 19.64101315 133.26068115 19.64164734 C131.96511292 19.65148148 130.66954468 19.66131561 129.3347168 19.67144775 C127.89581037 19.66207539 126.45690655 19.65229606 125.01800537 19.64215088 C123.50520322 19.64593318 121.99240452 19.65143249 120.47961426 19.65852356 C116.36800462 19.67250727 112.25681208 19.66128821 108.14522552 19.64481235 C103.84646765 19.6309818 99.54773448 19.63741964 95.2489624 19.64094543 C88.02933006 19.64364915 80.80986382 19.6301582 73.590271 19.60699463 C65.23833337 19.58038383 56.88667351 19.57863716 48.53470802 19.59038299 C40.50694849 19.60115485 32.47928962 19.59497838 24.45153809 19.58082771 C21.03212103 19.57506275 17.61277753 19.57515458 14.19335938 19.57989311 C10.16810463 19.58465857 6.14315479 19.57457941 2.11795807 19.55293846 C0.6388985 19.54736448 -0.84019033 19.5469109 -2.31925201 19.55189133 C-4.33460664 19.55782752 -6.34999093 19.54352897 -8.36529541 19.52812195 C-9.49428253 19.52569205 -10.62326965 19.52326216 -11.78646851 19.52075863 C-14.55230713 19.14044189 -14.55230713 19.14044189 -16.39602661 17.85058689 C-18.02239839 15.44517444 -18.26338846 13.14088292 -18.17340088 10.27716064 C-16.93044302 6.00107292 -13.1991833 3.43637671 -9.55230713 1.14044189 C-6.33776011 0.10515806 -3.36487783 0.01019847 0 0 Z " fill="#D3E1E8" transform="translate(193.55230712890625,393.85955810546875)"/>
<path d="M0 0 C4.88351295 2.30856976 7.51973231 5.22318815 10 10 C11.29047208 14.3398753 11.20311293 17.33424094 9.875 21.6875 C7.4463167 25.97817382 4.96524923 28.91394122 0.625 31.3125 C-5.35696991 32.8792064 -9.88178077 32.21364616 -15.203125 29.25390625 C-18.72907431 26.79340684 -20.4760442 23.99394292 -21.5625 19.859375 C-22.44237955 14.47011276 -21.85632741 10.79125888 -19 6 C-13.14215807 -0.0136356 -8.16363297 -0.81982736 0 0 Z " fill="#F76C82" transform="translate(369,50)"/>
<path d="M0 0 C4.39063739 2.15540381 7.47901962 4.79836603 10 9 C11.27416666 13.6341267 11.25934202 17.13552661 9.875 21.75 C7.42683834 25.99348021 4.93844381 28.92875473 0.625 31.3125 C-5.35830564 32.87955624 -9.8777799 32.20945726 -15.203125 29.2578125 C-19.39612322 26.32271375 -20.76374991 22.97650039 -21.9375 18.125 C-22.28222086 13.61777482 -21.31925657 9.87647169 -19 6 C-13.31965095 -0.10335377 -8.03906647 -0.81868852 0 0 Z " fill="#F76B82" transform="translate(154,50)"/>
</svg>
