<?xml version="1.0" encoding="UTF-8"?>
<svg version="1.1" xmlns="http://www.w3.org/2000/svg" width="512" height="512">
<path d="M0 0 C1.80875823 -0.00935994 1.80875823 -0.00935994 3.65405703 -0.01890898 C6.98432282 -0.03206361 10.3136808 -0.02738405 13.64389062 -0.0149641 C17.24178642 -0.00589124 20.83960452 -0.01989438 24.43748474 -0.03088379 C31.47902869 -0.04864984 38.52040189 -0.04483762 45.56195247 -0.03323323 C51.28586849 -0.02419162 57.00973672 -0.02297805 62.73365784 -0.02732849 C63.5489957 -0.02794142 64.36433356 -0.02855436 65.20437863 -0.02918586 C66.86083553 -0.03046479 68.5172924 -0.03176164 70.17374927 -0.03307623 C85.69836166 -0.04447641 101.22287951 -0.03137715 116.7474764 -0.00987476 C130.06196357 0.00799572 143.37631124 0.00489146 156.6907959 -0.0135498 C172.16068362 -0.03496645 187.63048852 -0.04337783 203.100389 -0.03110075 C204.75067741 -0.02982658 206.40096584 -0.0285691 208.05125427 -0.02732849 C208.8631812 -0.02671139 209.67510813 -0.02609429 210.51163891 -0.02545848 C216.22722635 -0.02200796 221.94276116 -0.0278275 227.65834045 -0.0372467 C234.62584024 -0.0484769 241.59315982 -0.04540528 248.56063902 -0.02412373 C252.11410412 -0.01362692 255.667269 -0.00946778 259.22073174 -0.02272034 C263.07562749 -0.03687942 266.93003399 -0.01994818 270.78491211 0 C271.90398217 -0.00892289 273.02305223 -0.01784577 274.1760335 -0.02703905 C280.54983418 0.03697527 285.62860862 0.69652359 290.89245605 4.50793457 C294.55702538 8.70909183 295.3948984 11.73273194 295.41003418 17.2442627 C295.4205481 18.21135414 295.4205481 18.21135414 295.43127441 19.19798279 C295.44876455 21.31216534 295.43726572 23.42499033 295.42370605 25.53918457 C295.4264036 27.01839452 295.43028821 28.49760273 295.43530273 29.97680664 C295.44118555 33.07020016 295.43267485 36.16313027 295.41394043 39.25646973 C295.3911508 43.21097962 295.40428054 47.1644035 295.42823029 51.1188736 C295.44272172 54.17136743 295.43806714 57.22360605 295.42771912 60.27610779 C295.42506103 61.73367951 295.42828917 63.1912748 295.43763733 64.64881897 C295.44785927 66.69036755 295.43222787 68.73018593 295.41003418 70.77160645 C295.40685181 71.93043335 295.40366943 73.08926025 295.40039062 74.28320312 C294.59896204 79.37124421 292.06168212 82.46112677 288.29016113 85.83776855 C283.64584849 88.12071335 279.64399247 88.15819142 274.5291748 88.23059082 C273.5169133 88.26102982 272.50465179 88.29146881 271.4617157 88.3228302 C269.29323491 88.38704051 267.12450572 88.44326986 264.95562744 88.49224854 C259.27297544 88.62386799 253.59271478 88.82335646 247.9119873 89.01965332 C246.78623291 89.05745911 245.66047852 89.09526489 244.50061035 89.13421631 C202.71987197 90.60239042 150.49182301 93.95931051 117.89245605 123.50793457 C115.16990727 126.65885641 112.96678743 129.90326075 110.89245605 133.50793457 C110.49671387 134.15117676 110.10097168 134.79441895 109.6932373 135.45715332 C102.17512987 148.78851855 101.60666756 167.86379231 104.5838623 182.59387207 C108.67049001 196.99111276 118.0638897 209.33274697 130.92370605 216.97277832 C141.71726073 222.55418225 151.52290638 224.62571852 163.5526123 224.68371582 C165.41655608 224.70689846 167.28048844 224.73101514 169.14440918 224.75598145 C172.05635446 224.79114808 174.96787249 224.82049386 177.88000488 224.8338623 C180.70888446 224.84935714 183.53655388 224.88954928 186.3651123 224.93371582 C187.23088394 224.9318074 188.09665558 224.92989899 188.98866272 224.92793274 C194.41850191 225.03742215 197.66760006 225.78510322 201.89245605 229.50793457 C205.55086322 234.10207765 206.39575173 237.14000693 206.41003418 242.9786377 C206.4205481 244.06277199 206.4205481 244.06277199 206.43127441 245.16880798 C206.44878749 247.54266514 206.4372566 249.91531666 206.42370605 252.28918457 C206.42640292 253.94775622 206.43028696 255.60632632 206.43530273 257.26489258 C206.44118869 260.73489488 206.4326643 264.20448431 206.41394043 267.67443848 C206.39115104 272.11318071 206.40427903 276.5509554 206.42823029 280.98966217 C206.44271293 284.4127323 206.43807106 287.83557459 206.42771912 291.25865173 C206.42505863 292.89485286 206.42829769 294.53107495 206.43763733 296.16725159 C206.44784417 298.4577989 206.43224676 300.74679883 206.41003418 303.03723145 C206.40685181 304.33817749 206.40366943 305.63912354 206.40039062 306.97949219 C205.70761694 311.79194672 204.18356379 314.76964954 200.25588226 317.74961853 C194.49023838 321.11251269 188.80699446 321.07527959 182.2791748 321.0255127 C181.13993561 321.03252197 180.00069641 321.03953125 178.82693481 321.04675293 C175.07769071 321.06429443 171.32920725 321.05272293 167.57995605 321.03918457 C164.96496435 321.04188056 162.34997363 321.04576388 159.73498535 321.05078125 C154.26102527 321.05804121 148.78728165 321.0485137 143.31335449 321.02941895 C137.00114054 321.00765309 130.68944353 321.01470565 124.37724209 321.03672457 C118.28390639 321.05712239 112.19079833 321.05488893 106.09744263 321.04319763 C103.51392545 321.04053409 100.93039502 321.04378695 98.34689331 321.05311584 C94.73282192 321.06330289 91.11973556 321.04774816 87.5057373 321.0255127 C86.44368073 321.03360962 85.38162415 321.04170654 84.28738403 321.05004883 C76.38848995 320.96026407 71.01810649 319.35831465 65.14245605 314.00012207 C64.39995605 313.1364502 63.65745605 312.27277832 62.89245605 311.38293457 C62.12933105 310.51410645 61.36620605 309.64527832 60.57995605 308.75012207 C58.89245605 306.50793457 58.89245605 306.50793457 58.89245605 304.50793457 C58.32526855 304.2320752 57.75808105 303.95621582 57.17370605 303.67199707 C55.66823435 302.90379404 54.18688056 302.08612314 52.73620605 301.21887207 C46.10971145 297.44177014 40.46415919 296.29445632 32.89245605 297.50793457 C23.55674114 300.36469067 17.06496497 307.31029263 11.26745605 314.88293457 C7.85738548 318.65195994 4.38021132 320.23126412 -0.60627556 320.78582573 C-3.61042286 320.90494006 -6.60079623 320.92468772 -9.6072998 320.9119873 C-10.74639297 320.91885056 -11.88548615 320.92571381 -13.05909729 320.93278503 C-16.81365526 320.95104309 -20.56779498 320.94721679 -24.3223877 320.94152832 C-26.93880855 320.9460905 -29.5552282 320.95139618 -32.17164612 320.95741272 C-37.65153992 320.9674277 -43.13131559 320.96415748 -48.61120605 320.95397949 C-54.93076729 320.94250077 -61.249904 320.95657508 -67.56940931 320.98337597 C-73.66752941 321.00826223 -79.76545464 321.01070121 -85.86361885 321.00425911 C-88.44993356 321.00410591 -91.03625645 321.01014879 -93.62254143 321.02255058 C-97.24147827 321.03745981 -100.85948541 321.02678251 -104.47839355 321.00964355 C-105.54202118 321.01931152 -106.6056488 321.02897949 -107.70150757 321.03894043 C-113.95820996 320.97702427 -119.0157215 320.37386261 -124.10754395 316.50793457 C-128.01825135 312.10068082 -128.60851289 308.82863603 -128.60925293 303.0213623 C-128.61735741 301.93481857 -128.61735741 301.93481857 -128.62562561 300.82632446 C-128.63806621 298.44763502 -128.62165607 296.07016698 -128.6036377 293.69152832 C-128.60379278 292.03056271 -128.60528327 290.36959674 -128.60804749 288.70863342 C-128.60942932 285.23442509 -128.59690855 281.76063069 -128.57409668 278.28649902 C-128.5456903 273.8388128 -128.54845815 269.39181277 -128.56118679 264.94407558 C-128.56814897 261.51677106 -128.56034894 258.08962451 -128.54792976 254.66234016 C-128.54342205 253.02252877 -128.54307252 251.38270039 -128.54699516 249.7428875 C-128.54991332 247.4499433 -128.53337362 245.15793772 -128.51159668 242.8651123 C-128.5061937 241.56194565 -128.50079071 240.25877899 -128.495224 238.91612244 C-127.93295846 233.97311189 -126.23394116 231.49696627 -122.54504395 228.25793457 C-118.1421156 225.09685781 -114.48738444 225.34151217 -109.21691895 225.29699707 C-107.37316078 225.26888178 -105.52941092 225.24021715 -103.68566895 225.21105957 C-100.78984227 225.17016356 -97.89416296 225.13327225 -94.99816895 225.10656738 C-74.26386246 224.89893793 -56.99746626 222.9228803 -41.3223877 207.88293457 C-27.08836219 192.6196409 -25.29694702 175.45027711 -24.56066895 155.48840332 C-24.51635742 154.33352417 -24.4720459 153.17864502 -24.4263916 151.98876953 C-24.31819973 149.16189134 -24.21196548 146.33495412 -24.10754395 143.50793457 C-25.34987793 143.51459641 -26.59221191 143.52125824 -27.87219238 143.52812195 C-39.64009635 143.58921429 -51.40796769 143.63404138 -63.17599487 143.66337109 C-69.22453475 143.67895718 -75.27294553 143.70006515 -81.32141113 143.73425293 C-87.1699346 143.76709976 -93.0183347 143.7848405 -98.86694336 143.7925663 C-101.08660826 143.79806469 -103.30626722 143.80880021 -105.52587891 143.82512474 C-136.29931402 144.04223657 -163.76981182 136.80228308 -186.50549316 115.09484863 C-205.64187986 96.139269 -217.23448552 70.80218348 -217.60754395 43.75793457 C-217.63533936 42.50762451 -217.63533936 42.50762451 -217.66369629 41.23205566 C-217.60818754 35.89124309 -216.86653137 32.57620578 -213.10754395 28.50793457 C-205.32291076 23.06568073 -196.68556273 23.97320895 -187.58410645 24.05383301 C-185.79969814 24.05496231 -184.01528797 24.05432601 -182.23088074 24.05206299 C-177.40283192 24.05091815 -172.57518286 24.07439023 -167.74722672 24.10235882 C-162.69572237 24.1274108 -157.64420825 24.12971747 -152.59265137 24.13446045 C-143.0340601 24.14687906 -133.47565244 24.17968563 -123.91714191 24.21985841 C-113.03206247 24.26461078 -102.14697414 24.28657188 -91.26182556 24.30664015 C-68.87696335 24.3484192 -46.49226395 24.41874963 -24.10754395 24.50793457 C-24.12494629 23.53936523 -24.14234863 22.5707959 -24.16027832 21.57287598 C-24.17381348 20.30621094 -24.18734863 19.0395459 -24.20129395 17.73449707 C-24.21869629 16.47717773 -24.23609863 15.2198584 -24.25402832 13.92443848 C-24.06640232 9.54837466 -23.29374965 7.53482999 -20.10754395 4.50793457 C-13.71245119 0.06750555 -7.58351955 -0.06046707 0 0 Z M5.89245605 31.50793457 C5.72206546 80.48150947 5.72206546 80.48150947 5.59460449 129.4552002 C5.54919434 138.96789551 5.54919434 138.96789551 5.52288818 143.43359375 C5.50601259 146.52544007 5.50001863 149.61709309 5.50091553 152.70898438 C5.50169554 156.67250028 5.48308191 160.63551077 5.4513669 164.59889507 C5.44295575 166.04119891 5.44093511 167.48356046 5.44663191 168.92587757 C5.49189928 182.06620439 3.43382694 195.2057227 -2.92004395 206.88293457 C-3.43715942 207.87196777 -3.43715942 207.87196777 -3.96472168 208.88098145 C-6.91616238 214.40892632 -10.23736198 219.57412292 -14.10754395 224.50793457 C-14.61414551 225.17824707 -15.12074707 225.84855957 -15.6427002 226.53918457 C-29.1272072 243.23744386 -50.78331393 252.87651845 -71.78503418 255.30456543 C-76.71614667 255.73635527 -81.66207694 255.88980753 -86.60754395 256.07043457 C-92.30004395 256.28699707 -92.30004395 256.28699707 -98.10754395 256.50793457 C-98.10754395 267.39793457 -98.10754395 278.28793457 -98.10754395 289.50793457 C-86.64160182 289.68891714 -75.17661336 289.83558055 -63.70956421 289.92243195 C-58.38448886 289.96412372 -53.06044413 290.02064143 -47.73596191 290.1114502 C-42.59412564 290.19859175 -37.45327839 290.24625391 -32.3107605 290.26695251 C-30.35228917 290.28169605 -28.39386995 290.31048849 -26.43582153 290.35377502 C-15.89663851 290.93936314 -15.89663851 290.93936314 -6.16778564 287.74758911 C-4.18021078 285.76877662 -2.65925679 283.83255983 -1.10754395 281.50793457 C14.04585668 269.00405491 29.68607116 265.01062048 48.89245605 266.50793457 C61.32664361 268.5629572 71.74200423 274.91919666 80.00476074 284.21813965 C85.81095218 289.95889019 91.11843041 290.70242226 99.08047104 290.78388691 C101.8999403 290.75334619 104.71482434 290.66877764 107.53308105 290.58215332 C109.51128789 290.56159931 111.48955128 290.54595903 113.46783447 290.5349884 C118.63798643 290.49328013 123.80465895 290.38549815 128.97344971 290.26324463 C134.26237935 290.15007268 139.55187955 290.10034259 144.8416748 290.04504395 C155.19369863 289.92758766 165.54224173 289.73435738 175.89245605 289.50793457 C175.89245605 278.61793457 175.89245605 267.72793457 175.89245605 256.50793457 C170.47839355 256.35324707 170.47839355 256.35324707 164.95495605 256.19543457 C141.16084714 255.29081983 120.60607599 249.97315255 101.89245605 234.50793457 C101.09194824 233.90723145 100.29144043 233.30652832 99.4666748 232.68762207 C84.83946742 220.30221733 75.61846546 200.1638851 72.89245605 181.50793457 C71.71774241 160.60613314 72.37463705 140.57030802 81.89245605 121.50793457 C82.3719873 120.53727051 82.85151855 119.56660645 83.34558105 118.56652832 C96.87719997 93.3753834 122.86488589 79.87111455 149.32995605 71.80871582 C182.69160628 62.13123539 217.65806589 58.74836037 252.29309082 57.79821777 C253.22951416 57.77203369 254.1659375 57.74584961 255.1307373 57.71887207 C255.93551514 57.70130859 256.74029297 57.68374512 257.56945801 57.66564941 C260.35981895 57.52647366 260.35981895 57.52647366 264.89245605 56.50793457 C264.89245605 48.25793457 264.89245605 40.00793457 264.89245605 31.50793457 C179.42245605 31.50793457 93.95245605 31.50793457 5.89245605 31.50793457 Z M-185.10754395 55.50793457 C-180.5730066 70.24518094 -176.00650963 80.71723676 -165.10754395 91.50793457 C-164.3702002 92.27879395 -163.63285645 93.04965332 -162.87316895 93.84387207 C-158.17528697 98.46293052 -153.24258769 101.82622551 -147.42004395 104.82043457 C-146.82183838 105.13383789 -146.22363281 105.44724121 -145.6072998 105.7701416 C-130.99933076 112.84442919 -116.65686656 113.05721651 -100.7677002 112.89855957 C-98.54711928 112.89108299 -96.32653169 112.88539678 -94.10594177 112.88140869 C-88.31089498 112.8662639 -82.5162604 112.82708018 -76.72137451 112.78259277 C-69.74195115 112.73413205 -62.76238861 112.71605289 -55.78284454 112.69277954 C-45.22412586 112.65422102 -34.66630851 112.5774891 -24.10754395 112.50793457 C-24.10754395 93.69793457 -24.10754395 74.88793457 -24.10754395 55.50793457 C-77.23754395 55.50793457 -130.36754395 55.50793457 -185.10754395 55.50793457 Z " fill="#000000" transform="translate(217.1075439453125,95.4920654296875)"/>
</svg>
