<?xml version="1.0" encoding="UTF-8"?>
<svg version="1.1" xmlns="http://www.w3.org/2000/svg" width="512" height="512">
<path d="M0 0 C1.80875823 -0.00935994 1.80875823 -0.00935994 3.65405703 -0.01890898 C6.98432282 -0.03206361 10.3136808 -0.02738405 13.64389062 -0.0149641 C17.24178642 -0.00589124 20.83960452 -0.01989438 24.43748474 -0.03088379 C31.47902869 -0.04864984 38.52040189 -0.04483762 45.56195247 -0.03323323 C51.28586849 -0.02419162 57.00973672 -0.02297805 62.73365784 -0.02732849 C63.95666463 -0.02824789 63.95666463 -0.02824789 65.20437863 -0.02918586 C66.86083553 -0.03046479 68.5172924 -0.03176164 70.17374927 -0.03307623 C85.69836166 -0.04447641 101.22287951 -0.03137715 116.7474764 -0.00987476 C130.06196357 0.00799572 143.37631124 0.00489146 156.6907959 -0.0135498 C172.16068362 -0.03496645 187.63048852 -0.04337783 203.100389 -0.03110075 C204.75067741 -0.02982658 206.40096584 -0.0285691 208.05125427 -0.02732849 C208.8631812 -0.02671139 209.67510813 -0.02609429 210.51163891 -0.02545848 C216.22722635 -0.02200796 221.94276116 -0.0278275 227.65834045 -0.0372467 C234.62584024 -0.0484769 241.59315982 -0.04540528 248.56063902 -0.02412373 C252.11410412 -0.01362692 255.667269 -0.00946778 259.22073174 -0.02272034 C263.07562749 -0.03687942 266.93003399 -0.01994818 270.78491211 0 C271.90398217 -0.00892289 273.02305223 -0.01784577 274.1760335 -0.02703905 C280.54983418 0.03697527 285.62860862 0.69652359 290.89245605 4.50793457 C294.55702538 8.70909183 295.3948984 11.73273194 295.41003418 17.2442627 C295.4205481 18.21135414 295.4205481 18.21135414 295.43127441 19.19798279 C295.44876455 21.31216534 295.43726572 23.42499033 295.42370605 25.53918457 C295.4264036 27.01839452 295.43028821 28.49760273 295.43530273 29.97680664 C295.44118555 33.07020016 295.43267485 36.16313027 295.41394043 39.25646973 C295.3911508 43.21097962 295.40428054 47.1644035 295.42823029 51.1188736 C295.44272172 54.17136743 295.43806714 57.22360605 295.42771912 60.27610779 C295.42506103 61.73367951 295.42828917 63.1912748 295.43763733 64.64881897 C295.44785927 66.69036755 295.43222787 68.73018593 295.41003418 70.77160645 C295.40685181 71.93043335 295.40366943 73.08926025 295.40039062 74.28320312 C294.59494698 79.39673467 292.0601467 82.485053 288.23278809 85.83776855 C283.85947246 88.02442637 280.27512401 88.15486011 275.44714355 88.23059082 C274.53237244 88.26102982 273.61760132 88.29146881 272.67510986 88.3228302 C270.71941375 88.38697289 268.76344538 88.44321992 266.80731201 88.49224854 C261.69346079 88.62377837 256.58226946 88.82278944 251.47058105 89.01965332 C250.46278595 89.05745911 249.45499084 89.09526489 248.41665649 89.13421631 C221.11186715 90.20990614 193.92688591 94.08817543 167.89245605 102.50793457 C167.16445801 102.74238281 166.43645996 102.97683105 165.68640137 103.21838379 C151.03859111 108.04759438 137.41783665 115.1607992 125.89245605 125.50793457 C125.26081543 126.05836426 124.6291748 126.60879395 123.97839355 127.17590332 C115.69627379 134.85601879 110.57889432 144.96175037 106.89245605 155.50793457 C106.57147949 156.42187988 106.25050293 157.3358252 105.9197998 158.27746582 C100.94583286 175.55910911 101.89147602 195.91579952 110.57995605 211.69543457 C119.6304366 225.63317461 132.10826868 235.02439423 148.44396973 238.5423584 C153.62066384 239.56032535 158.5826893 239.78755783 163.84558105 239.78137207 C165.699754 239.80163885 167.55392064 239.82248917 169.40808105 239.84387207 C172.28704239 239.8665333 175.16575305 239.8829816 178.0447998 239.88879395 C180.85383522 239.89832256 183.66178896 239.93206894 186.47058105 239.96887207 C187.32694153 239.9638266 188.183302 239.95878113 189.06561279 239.95358276 C195.43304949 240.05808534 198.84489525 241.88072698 203.70495605 246.07043457 C206.25320084 249.15515195 206.03342959 252.45070214 206.06945801 256.2611084 C206.08229324 257.44276077 206.09512848 258.62441315 206.10835266 259.84187317 C206.11943306 261.75905403 206.11943306 261.75905403 206.1307373 263.71496582 C206.13880905 265.02825363 206.1468808 266.34154144 206.15519714 267.69462585 C206.17021055 270.47622549 206.18005498 273.25779971 206.18762207 276.03942871 C206.1986795 279.59373442 206.23307677 283.14741287 206.27279377 286.70149708 C206.30530265 290.10179446 206.30974209 293.50202506 206.3182373 296.90246582 C206.33574539 298.1745137 206.35325348 299.44656158 206.37129211 300.75715637 C206.35915116 305.7001951 206.3083477 309.52710072 204.36584473 314.10827637 C197.80987929 320.46881178 191.11797606 321.09289809 182.2791748 321.0255127 C181.13993561 321.03252197 180.00069641 321.03953125 178.82693481 321.04675293 C175.07769071 321.06429443 171.32920725 321.05272293 167.57995605 321.03918457 C164.96496435 321.04188056 162.34997363 321.04576388 159.73498535 321.05078125 C154.26102527 321.05804121 148.78728165 321.0485137 143.31335449 321.02941895 C137.00114054 321.00765309 130.68944353 321.01470565 124.37724209 321.03672457 C118.28390639 321.05712239 112.19079833 321.05488893 106.09744263 321.04319763 C103.51392545 321.04053409 100.93039502 321.04378695 98.34689331 321.05311584 C94.73282192 321.06330289 91.11973556 321.04774816 87.5057373 321.0255127 C86.44368073 321.03360962 85.38162415 321.04170654 84.28738403 321.05004883 C78.00482419 320.97863654 73.10213321 320.19575654 67.89245605 316.50793457 C65.27526855 313.70324707 65.27526855 313.70324707 63.01745605 310.63293457 C58.07890461 304.23872834 52.58377173 300.07170646 44.89245605 297.50793457 C36.42677749 296.60595969 29.90044841 297.54489736 22.89245605 302.50793457 C18.56895712 306.26509659 14.74675415 310.33831393 11.26745605 314.88293457 C7.85738548 318.65195994 4.38021132 320.23126412 -0.60627556 320.78582573 C-3.61042286 320.90494006 -6.60079623 320.92468772 -9.6072998 320.9119873 C-10.74639297 320.91885056 -11.88548615 320.92571381 -13.05909729 320.93278503 C-16.81365526 320.95104309 -20.56779498 320.94721679 -24.3223877 320.94152832 C-26.93880855 320.9460905 -29.5552282 320.95139618 -32.17164612 320.95741272 C-37.65153992 320.9674277 -43.13131559 320.96415748 -48.61120605 320.95397949 C-54.93076729 320.94250077 -61.249904 320.95657508 -67.56940931 320.98337597 C-73.66752941 321.00826223 -79.76545464 321.01070121 -85.86361885 321.00425911 C-88.44993356 321.00410591 -91.03625645 321.01014879 -93.62254143 321.02255058 C-97.24147827 321.03745981 -100.85948541 321.02678251 -104.47839355 321.00964355 C-105.54202118 321.01931152 -106.6056488 321.02897949 -107.70150757 321.03894043 C-115.39941346 320.96276216 -120.98010367 319.55861265 -126.57434082 314.10168457 C-128.96758221 308.49204869 -128.67750172 303.044036 -128.63879395 297.00793457 C-128.64262085 295.6988916 -128.64644775 294.38984863 -128.65039062 293.0411377 C-128.65627 290.27727261 -128.64777436 287.51392655 -128.62902832 284.75012207 C-128.60623836 281.21930626 -128.61937004 277.6897068 -128.64331818 274.15893555 C-128.6613035 270.7751728 -128.64868626 267.39173181 -128.63879395 264.00793457 C-128.64689087 262.74529785 -128.65498779 261.48266113 -128.66333008 260.1817627 C-128.54471135 249.06722585 -128.54471135 249.06722585 -124.10754395 244.50793457 C-119.14096767 240.14855585 -115.12556033 239.94294375 -108.82629395 240.00402832 C-107.49048279 239.98989647 -107.49048279 239.98989647 -106.12768555 239.97547913 C-103.28740383 239.94691807 -100.44795716 239.94374442 -97.60754395 239.94543457 C-75.95103233 239.91740146 -57.80717229 238.69977814 -41.3223877 222.88293457 C-26.03783789 206.49315277 -24.79383465 187.24834309 -24.85217285 166.01940918 C-24.8494152 164.32251824 -24.84573065 162.62562859 -24.84120178 160.92874146 C-24.83316124 157.30797003 -24.83090293 153.68726008 -24.83314896 150.06648064 C-24.83600598 144.33813904 -24.8215455 138.60991834 -24.8041687 132.88160706 C-24.75735614 116.60447957 -24.7331809 100.32736286 -24.72668457 84.0501709 C-24.722935 75.03508479 -24.70492616 66.02013809 -24.67159021 57.00511175 C-24.65139609 51.31236708 -24.64899439 45.61998227 -24.65987039 39.92721641 C-24.66247681 36.39126597 -24.64847924 32.85552565 -24.62978935 29.31962967 C-24.62446752 27.68217421 -24.62596405 26.04468005 -24.63482475 24.40723991 C-24.64595613 22.16974902 -24.63250573 19.93367818 -24.61306763 17.6962738 C-24.61197809 16.44552535 -24.61088856 15.1947769 -24.60976601 13.90612698 C-23.91019495 9.17260921 -22.33122143 6.21509573 -18.48829949 3.2648086 C-12.59607281 -0.19414896 -6.67118558 -0.05319259 0 0 Z " fill="#FFFFFF" transform="translate(217.1075439453125,95.4920654296875)"/>
<path d="M0 0 C1.28582474 -0.00274933 2.57164948 -0.00549866 3.8964386 -0.0083313 C5.31395052 -0.0012539 6.7314615 0.00601571 8.14897156 0.01345825 C9.64722689 0.01402263 11.14548278 0.0137053 12.64373779 0.01257324 C16.70534423 0.01199975 20.76683238 0.02375355 24.82841134 0.03772116 C29.07516647 0.05022903 33.32192436 0.05139906 37.56869507 0.05377197 C45.60797926 0.05998657 53.64720902 0.07639713 61.68646926 0.09647095 C72.55174075 0.12301197 83.41702714 0.13380276 94.28232288 0.14547539 C111.39766256 0.16427773 128.51288737 0.20412354 145.6282196 0.24050903 C145.6282196 37.53050903 145.6282196 74.82050903 145.6282196 113.24050903 C126.6016571 113.36425903 126.6016571 113.36425903 107.1907196 113.49050903 C101.2363385 113.54513306 101.2363385 113.54513306 95.16166687 113.6008606 C90.22380066 113.618927 90.22380066 113.618927 87.89468384 113.62228394 C86.3062183 113.62833027 84.71776826 113.64219235 83.12942505 113.66281128 C56.43484475 113.99129082 32.58849431 105.14604957 12.6282196 87.24050903 C11.98368835 86.66687622 11.3391571 86.09324341 10.6750946 85.50222778 C-5.51804037 70.22086843 -16.45518398 46.74259231 -17.68037415 24.52566528 C-17.72913048 22.78493234 -17.77196372 21.04402478 -17.8092804 19.30300903 C-17.85504211 18.43482544 -17.90080383 17.56664185 -17.94795227 16.67214966 C-18.04766045 10.93676167 -17.06556621 7.84363159 -13.15718079 3.61331177 C-9.03512919 0.44384696 -5.09218363 -0.00840988 0 0 Z " fill="#FFFFFF" transform="translate(17.371780395507813,119.75949096679688)"/>
</svg>
